{
	"asset":{
		"generator":"Khronos glTF Blender I/O v4.3.47",
		"version":"2.0"
	},
	"extensionsUsed":[
		"KHR_materials_specular",
		"KHR_materials_ior"
	],
	"scene":0,
	"scenes":[
		{
			"name":"Scene",
			"nodes":[
				0
			]
		}
	],
	"nodes":[
		{
			"mesh":0,
			"name":"ToteA.L_mesh_id5"
		}
	],
	"materials":[
		{
			"doubleSided":true,
			"extensions":{
				"KHR_materials_specular":{
					"specularFactor":0.6000000238418579
				},
				"KHR_materials_ior":{
					"ior":1
				}
			},
			"name":"ToteA.L.001",
			"normalTexture":{
				"index":0
			},
			"pbrMetallicRoughness":{
				"baseColorTexture":{
					"index":1
				},
				"metallicFactor":0,
				"metallicRoughnessTexture":{
					"index":2
				}
			}
		}
	],
	"meshes":[
		{
			"name":"ToteA.L_mesh_id5.001",
			"primitives":[
				{
					"attributes":{
						"POSITION":0,
						"NORMAL":1,
						"TEXCOORD_0":2
					},
					"indices":3,
					"material":0
				}
			]
		}
	],
	"textures":[
		{
			"sampler":0,
			"source":0
		},
		{
			"sampler":0,
			"source":1
		},
		{
			"sampler":0,
			"source":2
		}
	],
	"images":[
		{
			"mimeType":"image/png",
			"name":"toteA_small_Normal",
			"uri":"toteA_small_Normal.png"
		},
		{
			"mimeType":"image/png",
			"name":"toteA_small_BaseColor",
			"uri":"toteA_small_BaseColor.png"
		},
		{
			"mimeType":"image/png",
			"name":"toteA_small_Roughness",
			"uri":"toteA_small_Roughness.png"
		}
	],
	"accessors":[
		{
			"bufferView":0,
			"componentType":5126,
			"count":5058,
			"max":[
				0.21411900222301483,
				0.1780889928340912,
				0.2800520062446594
			],
			"min":[
				-0.21411900222301483,
				0.0006370000191964209,
				-0.2800520062446594
			],
			"type":"VEC3"
		},
		{
			"bufferView":1,
			"componentType":5126,
			"count":5058,
			"type":"VEC3"
		},
		{
			"bufferView":2,
			"componentType":5126,
			"count":5058,
			"type":"VEC2"
		},
		{
			"bufferView":3,
			"componentType":5123,
			"count":25164,
			"type":"SCALAR"
		}
	],
	"bufferViews":[
		{
			"buffer":0,
			"byteLength":60696,
			"byteOffset":0,
			"target":34962
		},
		{
			"buffer":0,
			"byteLength":60696,
			"byteOffset":60696,
			"target":34962
		},
		{
			"buffer":0,
			"byteLength":40464,
			"byteOffset":121392,
			"target":34962
		},
		{
			"buffer":0,
			"byteLength":50328,
			"byteOffset":161856,
			"target":34963
		}
	],
	"samplers":[
		{
			"magFilter":9729,
			"minFilter":9987
		}
	],
	"buffers":[
		{
			"byteLength":212184,
			"uri":"ToteA.L.bin"
		}
	]
}
