{
	"asset":{
		"generator":"Khronos glTF Blender I/O v4.3.47",
		"version":"2.0"
	},
	"extensionsUsed":[
		"KHR_materials_specular"
	],
	"scene":0,
	"scenes":[
		{
			"name":"Scene",
			"nodes":[
				0
			]
		}
	],
	"nodes":[
		{
			"mesh":0,
			"name":"one_piece_wide_grasp_finray_finger"
		}
	],
	"materials":[
		{
			"doubleSided":true,
			"extensions":{
				"KHR_materials_specular":{
					"specularFactor":0
				}
			},
			"name":"one_piece_wide_grasp_finray_finger_material.003",
			"normalTexture":{
				"index":0,
				"scale":0
			},
			"pbrMetallicRoughness":{
				"baseColorTexture":{
					"index":1
				},
				"metallicFactor":0
			}
		}
	],
	"meshes":[
		{
			"name":"one_piece_wide_grasp_finray_finger.003",
			"primitives":[
				{
					"attributes":{
						"POSITION":0,
						"NORMAL":1,
						"TEXCOORD_0":2
					},
					"indices":3,
					"material":0
				}
			]
		}
	],
	"textures":[
		{
			"sampler":0,
			"source":0
		},
		{
			"sampler":0,
			"source":1
		}
	],
	"images":[
		{
			"mimeType":"image/png",
			"name":"one_piece_wide_grasp_finray_finger_normal",
			"uri":"one_piece_wide_grasp_finray_finger_normal.png"
		},
		{
			"mimeType":"image/png",
			"name":"one_piece_wide_grasp_finray_finger_color",
			"uri":"one_piece_wide_grasp_finray_finger_color.png"
		}
	],
	"accessors":[
		{
			"bufferView":0,
			"componentType":5126,
			"count":4094,
			"max":[
				0.03999999910593033,
				0.04005099833011627,
				0.03179899975657463
			],
			"min":[
				0,
				-0.12336699664592743,
				-0.005799000151455402
			],
			"type":"VEC3"
		},
		{
			"bufferView":1,
			"componentType":5126,
			"count":4094,
			"type":"VEC3"
		},
		{
			"bufferView":2,
			"componentType":5126,
			"count":4094,
			"type":"VEC2"
		},
		{
			"bufferView":3,
			"componentType":5123,
			"count":13200,
			"type":"SCALAR"
		}
	],
	"bufferViews":[
		{
			"buffer":0,
			"byteLength":49128,
			"byteOffset":0,
			"target":34962
		},
		{
			"buffer":0,
			"byteLength":49128,
			"byteOffset":49128,
			"target":34962
		},
		{
			"buffer":0,
			"byteLength":32752,
			"byteOffset":98256,
			"target":34962
		},
		{
			"buffer":0,
			"byteLength":26400,
			"byteOffset":131008,
			"target":34963
		}
	],
	"samplers":[
		{
			"magFilter":9729,
			"minFilter":9987
		}
	],
	"buffers":[
		{
			"byteLength":157408,
			"uri":"one_piece_wide_grasp_finray_finger.bin"
		}
	]
}
