{
	"asset":{
		"generator":"Khronos glTF Blender I/O v4.3.47",
		"version":"2.0"
	},
	"scene":0,
	"scenes":[
		{
			"name":"Scene",
			"nodes":[
				0
			]
		}
	],
	"nodes":[
		{
			"mesh":0,
			"name":"wsg50_mount_-_finger_holder_right",
			"rotation":[
				0.7071068286895752,
				0,
				0,
				0.7071068286895752
			]
		}
	],
	"materials":[
		{
			"doubleSided":true,
			"name":"Material.002",
			"pbrMetallicRoughness":{
				"baseColorFactor":[
					0,
					0.2383980005979538,
					0.6724429726600647,
					1
				],
				"metallicFactor":0,
				"roughnessFactor":0.5
			}
		}
	],
	"meshes":[
		{
			"name":"wsg50_mount_-_finger_holder_right",
			"primitives":[
				{
					"attributes":{
						"POSITION":0,
						"NORMAL":1
					},
					"indices":2,
					"material":0
				}
			]
		}
	],
	"accessors":[
		{
			"bufferView":0,
			"componentType":5126,
			"count":26832,
			"max":[
				40,
				19.000011444091797,
				146.5
			],
			"min":[
				0,
				-18.9999942779541,
				76.70000457763672
			],
			"type":"VEC3"
		},
		{
			"bufferView":1,
			"componentType":5126,
			"count":26832,
			"type":"VEC3"
		},
		{
			"bufferView":2,
			"componentType":5123,
			"count":26832,
			"type":"SCALAR"
		}
	],
	"bufferViews":[
		{
			"buffer":0,
			"byteLength":321984,
			"byteOffset":0,
			"target":34962
		},
		{
			"buffer":0,
			"byteLength":321984,
			"byteOffset":321984,
			"target":34962
		},
		{
			"buffer":0,
			"byteLength":53664,
			"byteOffset":643968,
			"target":34963
		}
	],
	"buffers":[
		{
			"byteLength":697632,
			"uri":"wsg50_mount-finger_holder_right.bin"
		}
	]
}
