# Blender 4.3.2
# www.blender.org
mtllib GUIDE_WSG50_110.mtl
o GUIDE_WSG50_110
v -1.800000 90.403824 9.689500
v -1.800000 91.193588 9.999329
v -1.800000 90.621002 10.500000
v -1.800000 91.193588 11.000672
v -1.800000 90.403824 11.310500
v -1.800000 90.759117 11.902852
v -1.800000 89.810501 11.903827
v -1.800000 89.976234 12.527180
v -1.800000 89.000000 12.121000
v -1.800000 89.000000 12.750000
v -1.800000 88.189499 11.903827
v -1.800000 88.023758 12.527180
v -1.800000 87.596169 11.310500
v -1.800000 87.240883 11.902852
v -1.800000 86.806412 11.000672
v -1.800000 87.378998 10.500000
v -1.800000 86.806412 9.999329
v -1.800000 87.596169 9.689500
v -1.800000 87.240883 9.097148
v -1.800000 88.189499 9.096172
v -1.800000 88.023758 8.472820
v -1.800000 89.000000 8.879001
v -1.800000 89.000000 8.250000
v -1.800000 89.810501 9.096172
v -1.800000 89.976234 8.472820
v -1.800000 90.759117 9.097148
v -1.800000 90.403824 -11.310500
v -1.800000 91.193588 -11.000672
v -1.800000 90.621002 -10.500000
v -1.800000 91.193588 -9.999329
v -1.800000 90.403824 -9.689500
v -1.800000 90.759117 -9.097148
v -1.800000 89.810501 -9.096172
v -1.800000 89.976234 -8.472820
v -1.800000 89.000000 -8.879001
v -1.800000 89.000000 -8.250000
v -1.800000 88.189499 -9.096172
v -1.800000 88.023758 -8.472820
v -1.800000 87.596169 -9.689500
v -1.800000 87.240883 -9.097148
v -1.800000 86.806412 -9.999329
v -1.800000 87.378998 -10.500000
v -1.800000 86.806412 -11.000672
v -1.800000 87.596169 -11.310500
v -1.800000 87.240883 -11.902852
v -1.800000 88.189499 -11.903827
v -1.800000 88.023758 -12.527180
v -1.800000 89.000000 -12.121000
v -1.800000 89.000000 -12.750000
v -1.800000 89.810501 -11.903827
v -1.800000 89.976234 -12.527180
v -1.800000 90.759117 -11.902852
v -6.000000 89.000000 8.879001
v -6.000000 88.189499 9.096172
v -6.000000 87.596169 9.689500
v -6.000000 87.378998 10.500000
v -6.000000 87.596169 11.310500
v -6.000000 88.189499 11.903827
v -6.000000 89.000000 12.121000
v -6.000000 89.810501 11.903827
v -6.000000 90.403824 11.310500
v -6.000000 90.621002 10.500000
v -6.000000 90.403824 9.689500
v -6.000000 89.810501 9.096172
v -6.000000 89.000000 -12.121000
v -6.000000 88.189499 -11.903827
v -6.000000 87.596169 -11.310500
v -6.000000 87.378998 -10.500000
v -6.000000 87.596169 -9.689500
v -6.000000 88.189499 -9.096172
v -6.000000 89.000000 -8.879001
v -6.000000 89.810501 -9.096172
v -6.000000 90.403824 -9.689500
v -6.000000 90.621002 -10.500000
v -6.000000 90.403824 -11.310500
v -6.000000 89.810501 -11.903827
v -0.800000 89.976234 8.472820
v -0.800000 89.000000 8.250000
v -0.800000 88.023758 8.472820
v -0.800000 87.240883 9.097148
v -0.800000 86.806412 9.999329
v -0.800000 86.806412 11.000672
v -0.800000 87.240883 11.902852
v -0.800000 88.023758 12.527180
v -0.800000 89.000000 12.750000
v -0.800000 89.976234 12.527180
v -0.800000 90.759117 11.902852
v -0.800000 91.193588 11.000672
v -0.800000 91.193588 9.999329
v -0.800000 90.759117 9.097148
v -0.800000 89.976234 -12.527180
v -0.800000 89.000000 -12.750000
v -0.800000 88.023758 -12.527180
v -0.800000 87.240883 -11.902852
v -0.800000 86.806412 -11.000672
v -0.800000 86.806412 -9.999329
v -0.800000 87.240883 -9.097148
v -0.800000 88.023758 -8.472820
v -0.800000 89.000000 -8.250000
v -0.800000 89.976234 -8.472820
v -0.800000 90.759117 -9.097148
v -0.800000 91.193588 -9.999329
v -0.800000 91.193588 -11.000672
v -0.800000 90.759117 -11.902852
v -6.000000 86.878677 8.378680
v -6.000000 86.228363 9.351950
v -6.000000 86.000000 10.500000
v -6.000000 91.121323 8.378680
v -6.000000 90.148048 7.728362
v -6.000000 89.000000 7.500000
v -6.000000 87.851952 7.728362
v -6.000000 91.121323 12.621321
v -6.000000 91.771637 11.648050
v -6.000000 92.000000 10.500000
v -6.000000 91.771637 9.351950
v -6.000000 86.228363 11.648050
v -6.000000 86.878677 12.621321
v -6.000000 87.851952 13.271638
v -6.000000 89.000000 13.500000
v -6.000000 90.148048 13.271638
v -6.000000 86.878677 -12.621321
v -6.000000 86.228363 -11.648050
v -6.000000 86.000000 -10.500000
v -6.000000 91.121323 -12.621321
v -6.000000 90.148048 -13.271638
v -6.000000 89.000000 -13.500000
v -6.000000 87.851952 -13.271638
v -6.000000 91.121323 -8.378680
v -6.000000 91.771637 -9.351950
v -6.000000 92.000000 -10.500000
v -6.000000 91.771637 -11.648050
v -6.000000 86.228363 -9.351950
v -6.000000 86.878677 -8.378680
v -6.000000 87.851952 -7.728362
v -6.000000 89.000000 -7.500000
v -6.000000 90.148048 -7.728362
v -0.800000 92.500000 13.500000
v -0.800000 80.500000 13.500000
v -0.800000 78.190308 -11.956709
v -0.800000 93.456711 13.309698
v -0.800000 94.267769 12.767767
v -0.800000 95.000000 11.000000
v -0.800000 94.809692 11.956709
v -0.800000 95.000000 -11.000000
v -0.800000 94.809692 -11.956709
v -0.800000 94.267769 -12.767767
v -0.800000 93.456711 -13.309698
v -0.800000 92.500000 -13.500000
v -0.800000 80.500000 -13.500000
v -0.800000 78.000000 11.000000
v -0.800000 78.190308 11.956709
v -0.800000 78.732231 12.767767
v -0.800000 79.543289 13.309698
v -0.800000 78.732231 -12.767767
v -0.800000 79.543289 -13.309698
v -0.800000 78.000000 -11.000000
v -9.000000 89.000000 7.500000
v -9.000000 87.851952 7.728362
v -9.000000 86.878677 8.378680
v -9.000000 86.228363 9.351950
v -9.000000 86.000000 10.500000
v -9.000000 86.228363 11.648050
v -9.000000 86.878677 12.621321
v -9.000000 87.851952 13.271638
v -9.000000 89.000000 13.500000
v -9.000000 90.148048 13.271638
v -9.000000 91.121323 12.621321
v -9.000000 91.771637 11.648050
v -9.000000 92.000000 10.500000
v -9.000000 91.771637 9.351950
v -9.000000 91.121323 8.378680
v -9.000000 90.148048 7.728362
v -9.000000 89.000000 -13.500000
v -9.000000 87.851952 -13.271638
v -9.000000 86.878677 -12.621321
v -9.000000 86.228363 -11.648050
v -9.000000 86.000000 -10.500000
v -9.000000 86.228363 -9.351950
v -9.000000 86.878677 -8.378680
v -9.000000 87.851952 -7.728362
v -9.000000 89.000000 -7.500000
v -9.000000 90.148048 -7.728362
v -9.000000 91.121323 -8.378680
v -9.000000 91.771637 -9.351950
v -9.000000 92.000000 -10.500000
v -9.000000 91.771637 -11.648050
v -9.000000 91.121323 -12.621321
v -9.000000 90.148048 -13.271638
v 0.000000 95.500000 -15.000000
v -9.000000 95.500000 -15.000000
v 0.000000 96.500000 -14.000000
v -9.000000 96.500000 -14.000000
v -18.000000 72.500000 -14.000000
v -18.000000 81.500000 -14.000000
v -17.000000 72.500000 -15.000000
v -17.000000 81.500000 -15.000000
v 0.000000 80.500000 13.500000
v 0.000000 92.500000 13.500000
v 0.000000 95.000000 11.000000
v 0.000000 94.809692 11.956709
v 0.000000 94.267769 12.767767
v 0.000000 93.456711 13.309698
v 0.000000 95.000000 -11.000000
v 0.000000 92.500000 -13.500000
v 0.000000 93.456711 -13.309698
v 0.000000 94.267769 -12.767767
v 0.000000 94.809692 -11.956709
v 0.000000 80.500000 -13.500000
v 0.000000 78.000000 -11.000000
v 0.000000 78.190308 -11.956709
v 0.000000 78.732231 -12.767767
v 0.000000 79.543289 -13.309698
v 0.000000 78.000000 11.000000
v 0.000000 79.543289 13.309698
v 0.000000 78.732231 12.767767
v 0.000000 78.190308 11.956709
v -16.500000 59.448971 10.700001
v -16.500000 59.448971 6.700000
v 0.000000 59.448971 10.700001
v 0.000000 59.448971 6.700000
v -9.000000 96.500000 14.000000
v 0.000000 96.500000 14.000000
v -17.000000 72.500000 15.000000
v -17.000000 81.500000 15.000000
v -18.000000 72.500000 14.000000
v -18.000000 81.500000 14.000000
v 0.000000 95.500000 15.000000
v -9.000000 95.500000 15.000000
v -9.000000 81.500000 -15.000000
v -9.000000 81.500000 15.000000
v 0.000000 72.500000 -15.000000
v -16.500000 72.500000 6.700000
v 0.000000 72.500000 6.700000
v -16.500000 72.500000 10.700001
v 0.000000 72.500000 10.700001
v 0.000000 72.500000 15.000000
vn 1.0000 -0.0000 -0.0000
vn -0.0000 -0.2588 0.9659
vn -0.0000 0.2588 0.9659
vn -0.0000 0.7071 0.7071
vn -0.0000 0.9659 0.2588
vn -0.0000 0.9659 -0.2588
vn -0.0000 0.7071 -0.7071
vn -0.0000 0.2588 -0.9659
vn -0.0000 -0.2588 -0.9659
vn -0.0000 -0.7071 -0.7071
vn -0.0000 -0.9659 -0.2588
vn -0.0000 -0.9659 0.2588
vn -0.0000 -0.7071 0.7071
vn -0.0000 -0.2225 0.9749
vn -0.0000 0.2225 0.9749
vn -0.0000 0.6235 0.7818
vn -0.0000 0.9010 0.4339
vn -0.0000 1.0000 -0.0000
vn -0.0000 0.9010 -0.4339
vn -0.0000 0.6235 -0.7818
vn -0.0000 0.2225 -0.9749
vn -0.0000 -0.2225 -0.9749
vn -0.0000 -0.6235 -0.7818
vn -0.0000 -0.9010 -0.4339
vn -0.0000 -1.0000 -0.0000
vn -0.0000 -0.9010 0.4339
vn -0.0000 -0.6235 0.7818
vn -1.0000 -0.0000 -0.0000
vn -0.0000 -0.1951 0.9808
vn -0.0000 0.1951 0.9808
vn -0.0000 0.5556 0.8315
vn -0.0000 0.8315 0.5556
vn -0.0000 0.9808 0.1951
vn -0.0000 0.9808 -0.1951
vn -0.0000 0.8315 -0.5556
vn -0.0000 0.5556 -0.8315
vn -0.0000 0.1951 -0.9808
vn -0.0000 -0.1951 -0.9808
vn -0.0000 -0.5556 -0.8315
vn -0.0000 -0.8315 -0.5556
vn -0.0000 -0.9808 -0.1951
vn -0.0000 -0.9808 0.1951
vn -0.0000 -0.8315 0.5556
vn -0.0000 -0.5556 0.8315
vn -0.7071 -0.0000 -0.7071
vn -0.0000 -0.0000 -1.0000
vn -0.0000 -0.0000 1.0000
vn -0.7071 -0.0000 0.7071
s 0
f 1//1 2//1 3//1
f 3//1 2//1 4//1
f 3//1 4//1 5//1
f 5//1 4//1 6//1
f 5//1 6//1 7//1
f 7//1 6//1 8//1
f 7//1 8//1 9//1
f 9//1 8//1 10//1
f 9//1 10//1 11//1
f 11//1 10//1 12//1
f 11//1 12//1 13//1
f 12//1 14//1 13//1
f 13//1 14//1 15//1
f 13//1 15//1 16//1
f 16//1 15//1 17//1
f 16//1 17//1 18//1
f 18//1 17//1 19//1
f 18//1 19//1 20//1
f 20//1 19//1 21//1
f 20//1 21//1 22//1
f 22//1 21//1 23//1
f 22//1 23//1 24//1
f 24//1 23//1 25//1
f 24//1 25//1 1//1
f 1//1 25//1 26//1
f 1//1 26//1 2//1
f 27//1 28//1 29//1
f 29//1 28//1 30//1
f 29//1 30//1 31//1
f 31//1 30//1 32//1
f 31//1 32//1 33//1
f 33//1 32//1 34//1
f 33//1 34//1 35//1
f 35//1 34//1 36//1
f 35//1 36//1 37//1
f 37//1 36//1 38//1
f 37//1 38//1 39//1
f 38//1 40//1 39//1
f 39//1 40//1 41//1
f 39//1 41//1 42//1
f 42//1 41//1 43//1
f 42//1 43//1 44//1
f 44//1 43//1 45//1
f 44//1 45//1 46//1
f 46//1 45//1 47//1
f 46//1 47//1 48//1
f 48//1 47//1 49//1
f 48//1 49//1 50//1
f 50//1 49//1 51//1
f 50//1 51//1 27//1
f 27//1 51//1 52//1
f 27//1 52//1 28//1
f 24//2 53//2 22//2
f 22//3 53//3 54//3
f 22//3 54//3 20//3
f 20//4 54//4 55//4
f 20//4 55//4 18//4
f 18//5 55//5 56//5
f 18//5 56//5 16//5
f 16//6 56//6 57//6
f 16//6 57//6 13//6
f 13//7 57//7 58//7
f 13//7 58//7 11//7
f 11//8 58//8 59//8
f 11//8 59//8 9//8
f 9//9 59//9 60//9
f 9//9 60//9 7//9
f 7//10 60//10 61//10
f 7//10 61//10 5//10
f 5//11 61//11 62//11
f 5//11 62//11 3//11
f 3//12 62//12 63//12
f 3//12 63//12 1//12
f 1//13 63//13 64//13
f 1//13 64//13 24//13
f 24//2 64//2 53//2
f 50//2 65//2 48//2
f 48//3 65//3 66//3
f 48//3 66//3 46//3
f 46//4 66//4 67//4
f 46//4 67//4 44//4
f 44//5 67//5 68//5
f 44//5 68//5 42//5
f 42//6 68//6 69//6
f 42//6 69//6 39//6
f 39//7 69//7 70//7
f 39//7 70//7 37//7
f 37//8 70//8 71//8
f 37//8 71//8 35//8
f 35//9 71//9 72//9
f 35//9 72//9 33//9
f 33//10 72//10 73//10
f 33//10 73//10 31//10
f 31//11 73//11 74//11
f 31//11 74//11 29//11
f 29//12 74//12 75//12
f 29//12 75//12 27//12
f 27//13 75//13 76//13
f 27//13 76//13 50//13
f 50//2 76//2 65//2
f 77//14 23//14 78//14
f 78//15 23//15 21//15
f 78//15 21//15 79//15
f 79//16 21//16 19//16
f 79//16 19//16 80//16
f 80//17 19//17 17//17
f 80//17 17//17 81//17
f 81//18 17//18 15//18
f 81//18 15//18 82//18
f 82//19 15//19 14//19
f 82//19 14//19 83//19
f 83//20 14//20 12//20
f 83//20 12//20 84//20
f 84//21 12//21 10//21
f 84//21 10//21 85//21
f 85//22 10//22 8//22
f 85//22 8//22 86//22
f 86//23 8//23 6//23
f 86//23 6//23 87//23
f 87//24 6//24 4//24
f 87//24 4//24 88//24
f 88//25 4//25 2//25
f 88//25 2//25 89//25
f 89//26 2//26 26//26
f 89//26 26//26 90//26
f 90//27 26//27 25//27
f 90//27 25//27 77//27
f 77//14 25//14 23//14
f 91//14 49//14 92//14
f 92//15 49//15 47//15
f 92//15 47//15 93//15
f 93//16 47//16 45//16
f 93//16 45//16 94//16
f 94//17 45//17 43//17
f 94//17 43//17 95//17
f 95//18 43//18 41//18
f 95//18 41//18 96//18
f 96//19 41//19 40//19
f 96//19 40//19 97//19
f 97//20 40//20 38//20
f 97//20 38//20 98//20
f 98//21 38//21 36//21
f 98//21 36//21 99//21
f 99//22 36//22 34//22
f 99//22 34//22 100//22
f 100//23 34//23 32//23
f 100//23 32//23 101//23
f 101//24 32//24 30//24
f 101//24 30//24 102//24
f 102//25 30//25 28//25
f 102//25 28//25 103//25
f 103//26 28//26 52//26
f 103//26 52//26 104//26
f 104//27 52//27 51//27
f 104//27 51//27 91//27
f 91//14 51//14 49//14
f 54//28 105//28 55//28
f 55//28 105//28 106//28
f 55//28 106//28 56//28
f 56//28 106//28 107//28
f 56//28 107//28 57//28
f 63//28 108//28 64//28
f 64//28 108//28 109//28
f 64//28 109//28 53//28
f 53//28 109//28 110//28
f 53//28 110//28 54//28
f 54//28 110//28 111//28
f 54//28 111//28 105//28
f 60//28 112//28 61//28
f 61//28 112//28 113//28
f 61//28 113//28 62//28
f 62//28 113//28 114//28
f 62//28 114//28 63//28
f 63//28 114//28 115//28
f 63//28 115//28 108//28
f 107//28 116//28 57//28
f 57//28 116//28 117//28
f 57//28 117//28 58//28
f 58//28 117//28 118//28
f 58//28 118//28 59//28
f 59//28 118//28 119//28
f 59//28 119//28 60//28
f 60//28 119//28 120//28
f 60//28 120//28 112//28
f 66//28 121//28 67//28
f 67//28 121//28 122//28
f 67//28 122//28 68//28
f 68//28 122//28 123//28
f 68//28 123//28 69//28
f 75//28 124//28 76//28
f 76//28 124//28 125//28
f 76//28 125//28 65//28
f 65//28 125//28 126//28
f 65//28 126//28 66//28
f 66//28 126//28 127//28
f 66//28 127//28 121//28
f 72//28 128//28 73//28
f 73//28 128//28 129//28
f 73//28 129//28 74//28
f 74//28 129//28 130//28
f 74//28 130//28 75//28
f 75//28 130//28 131//28
f 75//28 131//28 124//28
f 123//28 132//28 69//28
f 69//28 132//28 133//28
f 69//28 133//28 70//28
f 70//28 133//28 134//28
f 70//28 134//28 71//28
f 71//28 134//28 135//28
f 71//28 135//28 72//28
f 72//28 135//28 136//28
f 72//28 136//28 128//28
f 85//1 137//1 138//1
f 95//1 96//1 139//1
f 85//1 86//1 137//1
f 137//1 86//1 87//1
f 137//1 87//1 140//1
f 140//1 87//1 88//1
f 140//1 88//1 141//1
f 89//1 142//1 88//1
f 88//1 142//1 143//1
f 88//1 143//1 141//1
f 90//1 99//1 89//1
f 89//1 99//1 100//1
f 89//1 100//1 142//1
f 142//1 100//1 101//1
f 142//1 101//1 144//1
f 144//1 101//1 102//1
f 144//1 102//1 145//1
f 145//1 102//1 103//1
f 145//1 103//1 146//1
f 146//1 103//1 104//1
f 146//1 104//1 147//1
f 147//1 104//1 148//1
f 104//1 91//1 148//1
f 148//1 91//1 92//1
f 148//1 92//1 149//1
f 79//1 80//1 150//1
f 150//1 80//1 81//1
f 150//1 81//1 151//1
f 151//1 81//1 82//1
f 151//1 82//1 152//1
f 152//1 82//1 153//1
f 153//1 82//1 83//1
f 153//1 83//1 138//1
f 138//1 83//1 84//1
f 138//1 84//1 85//1
f 139//1 154//1 95//1
f 95//1 154//1 155//1
f 95//1 155//1 94//1
f 94//1 155//1 149//1
f 94//1 149//1 93//1
f 93//1 149//1 92//1
f 90//1 77//1 99//1
f 99//1 77//1 78//1
f 99//1 78//1 98//1
f 98//1 78//1 79//1
f 98//1 79//1 97//1
f 97//1 79//1 150//1
f 97//1 150//1 96//1
f 96//1 150//1 156//1
f 96//1 156//1 139//1
f 109//29 157//29 110//29
f 110//30 157//30 158//30
f 110//30 158//30 111//30
f 111//31 158//31 159//31
f 111//31 159//31 105//31
f 105//32 159//32 160//32
f 105//32 160//32 106//32
f 106//33 160//33 161//33
f 106//33 161//33 107//33
f 107//34 161//34 162//34
f 107//34 162//34 116//34
f 116//35 162//35 163//35
f 116//35 163//35 117//35
f 117//36 163//36 164//36
f 117//36 164//36 118//36
f 118//37 164//37 165//37
f 118//37 165//37 119//37
f 119//38 165//38 166//38
f 119//38 166//38 120//38
f 120//39 166//39 167//39
f 120//39 167//39 112//39
f 112//40 167//40 168//40
f 112//40 168//40 113//40
f 113//41 168//41 169//41
f 113//41 169//41 114//41
f 114//42 169//42 170//42
f 114//42 170//42 115//42
f 115//43 170//43 171//43
f 115//43 171//43 108//43
f 108//44 171//44 172//44
f 108//44 172//44 109//44
f 109//29 172//29 157//29
f 125//29 173//29 126//29
f 126//30 173//30 174//30
f 126//30 174//30 127//30
f 127//31 174//31 175//31
f 127//31 175//31 121//31
f 121//32 175//32 176//32
f 121//32 176//32 122//32
f 122//33 176//33 177//33
f 122//33 177//33 123//33
f 123//34 177//34 178//34
f 123//34 178//34 132//34
f 132//35 178//35 179//35
f 132//35 179//35 133//35
f 133//36 179//36 180//36
f 133//36 180//36 134//36
f 134//37 180//37 181//37
f 134//37 181//37 135//37
f 135//38 181//38 182//38
f 135//38 182//38 136//38
f 136//39 182//39 183//39
f 136//39 183//39 128//39
f 128//40 183//40 184//40
f 128//40 184//40 129//40
f 129//41 184//41 185//41
f 129//41 185//41 130//41
f 130//42 185//42 186//42
f 130//42 186//42 131//42
f 131//43 186//43 187//43
f 131//43 187//43 124//43
f 124//44 187//44 188//44
f 124//44 188//44 125//44
f 125//29 188//29 173//29
f 189//7 190//7 191//7
f 191//7 190//7 192//7
f 193//45 194//45 195//45
f 195//45 194//45 196//45
f 197//46 138//46 198//46
f 198//46 138//46 137//46
f 142//41 199//41 200//41
f 142//41 200//41 143//41
f 143//40 200//40 201//40
f 143//40 201//40 141//40
f 141//39 201//39 202//39
f 141//39 202//39 140//39
f 140//38 202//38 198//38
f 140//38 198//38 137//38
f 199//25 142//25 203//25
f 203//25 142//25 144//25
f 148//29 204//29 205//29
f 148//29 205//29 147//29
f 147//44 205//44 206//44
f 147//44 206//44 146//44
f 146//43 206//43 207//43
f 146//43 207//43 145//43
f 145//42 207//42 203//42
f 145//42 203//42 144//42
f 204//47 148//47 208//47
f 208//47 148//47 149//47
f 156//33 209//33 210//33
f 156//33 210//33 139//33
f 139//32 210//32 211//32
f 139//32 211//32 154//32
f 154//31 211//31 212//31
f 154//31 212//31 155//31
f 155//30 212//30 208//30
f 155//30 208//30 149//30
f 209//18 156//18 213//18
f 213//18 156//18 150//18
f 138//37 197//37 214//37
f 138//37 214//37 153//37
f 153//36 214//36 215//36
f 153//36 215//36 152//36
f 152//35 215//35 216//35
f 152//35 216//35 151//35
f 151//34 216//34 213//34
f 151//34 213//34 150//34
f 217//25 218//25 219//25
f 219//25 218//25 220//25
f 221//18 222//18 192//18
f 192//18 222//18 191//18
f 223//48 224//48 225//48
f 225//48 224//48 226//48
f 222//4 221//4 227//4
f 227//4 221//4 228//4
f 171//28 170//28 192//28
f 190//28 188//28 187//28
f 229//28 177//28 176//28
f 190//28 187//28 192//28
f 192//28 187//28 186//28
f 192//28 186//28 185//28
f 176//28 175//28 229//28
f 229//28 175//28 174//28
f 229//28 174//28 190//28
f 190//28 174//28 173//28
f 190//28 173//28 188//28
f 192//28 170//28 221//28
f 171//28 192//28 172//28
f 172//28 192//28 185//28
f 172//28 185//28 157//28
f 157//28 185//28 184//28
f 157//28 184//28 183//28
f 160//28 159//28 179//28
f 179//28 159//28 158//28
f 167//28 228//28 168//28
f 168//28 228//28 221//28
f 168//28 221//28 169//28
f 169//28 221//28 170//28
f 167//28 166//28 228//28
f 228//28 166//28 165//28
f 228//28 165//28 230//28
f 230//28 165//28 164//28
f 164//28 163//28 230//28
f 230//28 163//28 162//28
f 230//28 162//28 161//28
f 177//28 229//28 178//28
f 178//28 229//28 230//28
f 178//28 230//28 179//28
f 179//28 230//28 161//28
f 179//28 161//28 160//28
f 183//28 182//28 157//28
f 157//28 182//28 181//28
f 157//28 181//28 158//28
f 158//28 181//28 180//28
f 158//28 180//28 179//28
f 230//18 229//18 224//18
f 224//18 229//18 196//18
f 224//18 196//18 226//18
f 226//18 196//18 194//18
f 225//28 226//28 193//28
f 193//28 226//28 194//28
f 190//46 189//46 229//46
f 229//46 189//46 231//46
f 229//46 231//46 196//46
f 196//46 231//46 195//46
f 218//46 232//46 220//46
f 220//46 232//46 233//46
f 218//28 217//28 232//28
f 232//28 217//28 234//28
f 234//47 217//47 235//47
f 235//47 217//47 219//47
f 215//1 214//1 236//1
f 236//1 214//1 197//1
f 236//1 197//1 227//1
f 227//1 197//1 198//1
f 235//1 210//1 236//1
f 236//1 210//1 209//1
f 209//1 213//1 236//1
f 236//1 213//1 216//1
f 236//1 216//1 215//1
f 189//1 205//1 204//1
f 198//1 202//1 227//1
f 227//1 202//1 201//1
f 227//1 201//1 222//1
f 212//1 211//1 231//1
f 231//1 211//1 210//1
f 231//1 210//1 233//1
f 233//1 210//1 235//1
f 233//1 235//1 220//1
f 220//1 235//1 219//1
f 189//1 204//1 231//1
f 231//1 204//1 208//1
f 231//1 208//1 212//1
f 191//1 207//1 189//1
f 189//1 207//1 206//1
f 189//1 206//1 205//1
f 201//1 200//1 222//1
f 222//1 200//1 199//1
f 222//1 199//1 191//1
f 191//1 199//1 203//1
f 191//1 203//1 207//1
f 224//47 223//47 230//47
f 230//47 223//47 236//47
f 230//47 236//47 228//47
f 228//47 236//47 227//47
f 231//25 233//25 195//25
f 195//25 233//25 232//25
f 195//25 232//25 193//25
f 193//25 232//25 225//25
f 225//25 232//25 234//25
f 225//25 234//25 223//25
f 223//25 234//25 235//25
f 223//25 235//25 236//25
