# Blender 4.3.2
# www.blender.org
mtllib WSG50_110.mtl
o WSG50_110
v 0.000000 0.047500 -0.011500
v 0.000000 0.047500 -0.006000
v 0.072000 0.047500 -0.011500
v 0.072000 0.047500 -0.006000
v 0.000000 0.047500 0.006000
v -0.072000 0.047500 0.006000
v 0.000000 0.047500 0.011500
v -0.072000 0.047500 0.011500
v 0.072000 0.071866 -0.006000
v 0.072000 0.071866 -0.011500
v -0.072000 0.071866 0.006000
v -0.072000 0.071866 0.011500
v -0.058200 0.002500 -0.024500
v -0.058200 0.001500 -0.024232
v -0.058200 0.000500 -0.024500
v -0.058200 0.000768 -0.023500
v -0.058200 0.000500 -0.022500
v 0.017800 0.000500 -0.022500
v 0.017800 0.000768 -0.023500
v 0.017800 0.000500 -0.024500
v 0.017800 0.001500 -0.024232
v 0.017800 0.002500 -0.024500
v -0.058000 0.002500 -0.024500
v -0.058000 0.000500 -0.022500
v 0.000000 0.071900 -0.011500
v 0.071936 0.071900 -0.011500
v 0.000000 0.071900 -0.006000
v 0.071936 0.071900 -0.006000
v 0.000000 0.071900 0.011500
v -0.071936 0.071900 0.011500
v 0.000000 0.071900 0.006000
v -0.071936 0.071900 0.006000
v 0.071936 0.071900 -0.024000
v 0.072234 0.071679 -0.024000
v 0.071936 0.071900 0.024000
v 0.072234 0.071679 0.024000
v 0.072431 0.071365 0.024000
v 0.072431 0.071365 -0.024000
v 0.072500 0.071000 0.024000
v 0.072500 0.071000 -0.024000
v -0.071936 0.071900 0.024000
v -0.072234 0.071679 0.024000
v -0.071936 0.071900 -0.024000
v -0.072234 0.071679 -0.024000
v -0.072431 0.071365 -0.024000
v -0.072431 0.071365 0.024000
v -0.072500 0.071000 -0.024000
v -0.072500 0.071000 0.024000
v -0.058000 0.000500 -0.024500
v 0.018000 0.014000 -0.024500
v 0.018000 0.000500 -0.024500
v -0.054000 0.018000 -0.024500
v 0.014000 0.018000 -0.024500
v 0.016000 0.017464 -0.024500
v 0.017464 0.016000 -0.024500
v -0.057464 0.016000 -0.024500
v -0.056000 0.017464 -0.024500
v -0.058000 0.014000 -0.024500
v 0.018000 0.000500 -0.015000
v -0.062000 0.000500 -0.017000
v -0.050157 0.000500 0.017000
v -0.066000 0.000500 0.017000
v -0.048626 0.000500 0.016696
v -0.060000 0.000500 -0.017536
v -0.047328 0.000500 0.015828
v -0.021672 0.000500 -0.009828
v -0.058536 0.000500 -0.019000
v -0.020374 0.000500 -0.010696
v -0.068000 0.000500 0.016464
v -0.069464 0.000500 0.015000
v -0.070000 0.000500 0.013000
v -0.070000 0.000500 -0.013000
v -0.066000 0.000500 -0.017000
v -0.069464 0.000500 -0.015000
v -0.068000 0.000500 -0.016464
v 0.017464 0.000500 -0.013000
v 0.016000 0.000500 -0.011536
v 0.014000 0.000500 -0.011000
v -0.018843 0.000500 -0.011000
v -0.058000 0.000500 -0.021000
v -0.072400 0.020280 0.019250
v -0.072400 0.039780 0.019250
v -0.072400 0.041780 -0.017250
v -0.072400 0.041512 -0.018250
v -0.072400 0.040780 -0.018982
v -0.072400 0.019280 -0.018982
v -0.072400 0.018548 -0.018250
v -0.072400 0.020280 -0.019250
v -0.072400 0.018280 -0.017250
v -0.072400 0.039780 -0.019250
v -0.072400 0.041780 0.017250
v -0.072400 0.040780 0.018982
v -0.072400 0.041512 0.018250
v -0.072400 0.018548 0.018250
v -0.072400 0.019280 0.018982
v -0.072400 0.018280 0.017250
v 0.072500 0.050000 -0.024000
v 0.072500 0.050000 0.024000
v 0.072500 0.045670 -0.021500
v 0.072500 0.047500 -0.023330
v 0.072500 0.045000 -0.019000
v 0.072500 0.045000 0.019000
v 0.072500 0.045670 0.021500
v 0.072500 0.047500 0.023330
v -0.072500 0.050000 0.024000
v -0.072500 0.050000 -0.024000
v -0.072500 0.045670 0.021500
v -0.072500 0.047500 0.023330
v -0.072500 0.045000 0.019000
v -0.072500 0.045000 -0.019000
v -0.072500 0.045670 -0.021500
v -0.072500 0.047500 -0.023330
v 0.073000 0.045000 -0.019000
v 0.073000 0.045670 -0.021500
v 0.073000 0.047500 -0.023330
v 0.073000 0.050000 -0.024000
v 0.073000 0.045000 0.019000
v 0.073000 0.050000 0.024000
v 0.073000 0.047500 0.023330
v 0.073000 0.045670 0.021500
v 0.072646 0.072500 -0.025000
v -0.072646 0.072500 -0.025000
v 0.073000 0.072500 -0.024646
v -0.072646 0.072500 -0.024000
v 0.073000 0.072500 -0.024000
v 0.073000 0.021000 -0.024646
v 0.072646 0.020646 -0.025000
v 0.014000 0.018000 -0.025000
v 0.016000 0.017464 -0.025000
v 0.017464 0.016000 -0.025000
v 0.018000 0.014000 -0.025000
v -0.054000 0.018000 -0.025000
v -0.058000 0.014000 -0.025000
v -0.057464 0.016000 -0.025000
v -0.056000 0.017464 -0.025000
v -0.058000 0.000500 -0.025000
v -0.058000 0.000000 -0.024500
v -0.072646 0.000500 -0.025000
v -0.072500 -0.000000 -0.024500
v -0.072823 0.000323 -0.024823
v -0.058000 0.000000 -0.021000
v -0.062000 0.000000 -0.017000
v -0.060000 0.000000 -0.017536
v -0.058536 0.000000 -0.019000
v -0.066000 0.000000 -0.017000
v -0.070000 0.000000 -0.013000
v -0.069464 0.000000 -0.015000
v -0.068000 0.000000 -0.016464
v -0.070000 0.000000 0.013000
v -0.066000 0.000000 0.017000
v -0.068000 0.000000 0.016464
v -0.069464 0.000000 0.015000
v -0.050157 0.000000 0.017000
v -0.047328 0.000000 0.015828
v -0.048626 0.000000 0.016696
v -0.021672 0.000000 -0.009828
v -0.018843 0.000000 -0.011000
v -0.020374 0.000000 -0.010696
v 0.014000 0.000000 -0.011000
v 0.018000 0.000000 -0.015000
v 0.017464 0.000000 -0.013000
v 0.016000 0.000000 -0.011536
v 0.018000 0.000000 -0.024500
v 0.018000 0.000500 -0.025000
v 0.052000 0.000000 -0.024500
v 0.052500 0.000500 -0.025000
v -0.073000 0.072146 -0.024646
v -0.073000 0.000500 -0.024646
v -0.072500 -0.000000 0.024500
v -0.073000 0.000500 0.024646
v -0.072823 0.000323 0.024823
v -0.073000 0.045000 0.019000
v -0.073000 0.045670 0.021500
v -0.073000 0.047500 0.023330
v -0.073000 0.050000 0.024000
v -0.073000 0.045000 -0.019000
v -0.073000 0.050000 -0.024000
v -0.073000 0.047500 -0.023330
v -0.073000 0.045670 -0.021500
v -0.073000 0.072146 -0.024000
v -0.073000 0.020280 -0.019250
v -0.073000 0.039780 -0.019250
v -0.073000 0.041780 -0.017250
v -0.073000 0.041512 -0.018250
v -0.073000 0.040780 -0.018982
v -0.073000 0.041780 0.017250
v -0.073000 0.039780 0.019250
v -0.073000 0.040780 0.018982
v -0.073000 0.041512 0.018250
v -0.073000 0.020280 0.019250
v -0.073000 0.018280 0.017250
v -0.073000 0.018548 0.018250
v -0.073000 0.019280 0.018982
v -0.073000 0.018280 -0.017250
v -0.073000 0.019280 -0.018982
v -0.073000 0.018548 -0.018250
v 0.073000 0.072500 0.024000
v -0.072646 0.072500 0.024000
v -0.073000 0.072146 0.024000
v 0.073000 0.072500 0.024646
v 0.073000 0.021000 0.024646
v 0.052000 0.000000 0.024500
v -0.073000 0.072146 0.024646
v -0.072646 0.072500 0.025000
v 0.072646 0.072500 0.025000
v 0.072646 0.020646 0.025000
v 0.052500 0.000500 0.025000
v -0.072646 0.000500 0.025000
vn -0.0000 1.0000 -0.0000
vn -1.0000 -0.0000 -0.0000
vn 1.0000 -0.0000 -0.0000
vn -0.0000 -0.2588 -0.9659
vn -0.0000 -0.9659 -0.2588
vn -0.0000 -0.7071 -0.7071
vn -0.0000 -0.0000 1.0000
vn -0.0000 -0.0000 -1.0000
vn 0.5953 0.8035 -0.0000
vn 0.4683 0.8836 -0.0044
vn 0.6241 0.7813 -0.0000
vn 0.4683 0.8836 -0.0000
vn 0.5953 0.8035 0.0004
vn 0.6241 0.7814 -0.0000
vn 0.8473 0.5311 -0.0000
vn 0.9826 0.1855 -0.0000
vn -0.5953 0.8035 -0.0000
vn -0.4683 0.8836 0.0044
vn -0.6241 0.7813 -0.0000
vn -0.4683 0.8836 -0.0000
vn -0.5953 0.8035 -0.0004
vn -0.6241 0.7814 -0.0000
vn -0.8473 0.5311 -0.0000
vn -0.9826 0.1855 -0.0000
vn -0.0000 -1.0000 -0.0000
vn -1.0000 -0.0000 -0.0001
vn -0.0000 0.9659 0.2588
vn -0.0000 0.7071 0.7071
vn -0.0000 0.2588 0.9659
vn -0.0000 0.2588 -0.9659
vn -0.0000 0.7071 -0.7071
vn -0.0000 0.9659 -0.2588
vn 0.7071 -0.0000 -0.7071
vn -0.2588 -0.9659 -0.0000
vn -0.7071 -0.7071 -0.0000
vn -0.9659 -0.2588 -0.0000
vn 0.9659 -0.2588 -0.0000
vn 0.7071 -0.7071 -0.0000
vn 0.2588 -0.9659 -0.0000
vn 0.2588 -0.0000 0.9659
vn 0.7071 -0.0000 0.7071
vn 0.9659 -0.0000 0.2588
vn 0.2588 -0.0000 -0.9659
vn 0.9659 -0.0000 -0.2588
vn -0.5556 -0.0000 -0.8315
vn -0.1951 -0.0000 -0.9808
vn -0.7071 -0.0000 -0.7071
vn -0.9659 -0.0000 -0.2588
vn -0.2588 -0.0000 -0.9659
vn -0.7071 0.7071 -0.0000
vn -0.0000 -0.9659 0.2588
vn -0.0000 -0.7071 0.7071
vn -0.0000 -0.2588 0.9659
vn -0.0001 1.0000 -0.0000
vn -0.7071 -0.0000 0.7071
s 0
f 1//1 2//1 3//1
f 3//1 2//1 4//1
f 5//1 6//1 7//1
f 7//1 6//1 8//1
f 4//2 9//2 3//2
f 3//2 9//2 10//2
f 6//3 11//3 8//3
f 8//3 11//3 12//3
f 13//3 14//3 15//3
f 15//3 14//3 16//3
f 15//3 16//3 17//3
f 18//2 19//2 20//2
f 20//2 19//2 21//2
f 20//2 21//2 22//2
f 23//4 22//4 21//4
f 14//4 13//4 23//4
f 19//5 18//5 24//5
f 23//4 21//4 14//4
f 14//6 21//6 19//6
f 14//6 19//6 16//6
f 16//5 19//5 24//5
f 16//5 24//5 17//5
f 25//7 1//7 26//7
f 26//7 1//7 3//7
f 26//7 3//7 10//7
f 1//3 25//3 2//3
f 2//3 25//3 27//3
f 9//8 4//8 28//8
f 28//8 4//8 2//8
f 28//8 2//8 27//8
f 29//8 7//8 30//8
f 30//8 7//8 8//8
f 30//8 8//8 12//8
f 7//2 29//2 5//2
f 5//2 29//2 31//2
f 11//7 6//7 32//7
f 32//7 6//7 5//7
f 32//7 5//7 31//7
f 33//9 26//9 34//9
f 34//10 26//10 10//10
f 34//11 10//11 9//11
f 28//12 35//12 9//12
f 9//13 35//13 36//13
f 9//14 36//14 34//14
f 34//15 36//15 37//15
f 34//15 37//15 38//15
f 38//16 37//16 39//16
f 38//16 39//16 40//16
f 41//17 30//17 42//17
f 42//18 30//18 12//18
f 42//19 12//19 11//19
f 32//20 43//20 11//20
f 11//21 43//21 44//21
f 11//22 44//22 42//22
f 42//23 44//23 45//23
f 42//23 45//23 46//23
f 46//24 45//24 47//24
f 46//24 47//24 48//24
f 17//1 24//1 15//1
f 15//1 24//1 49//1
f 15//7 49//7 13//7
f 13//7 49//7 23//7
f 50//8 51//8 22//8
f 22//8 51//8 20//8
f 52//8 53//8 22//8
f 22//8 53//8 50//8
f 50//8 53//8 54//8
f 50//8 54//8 55//8
f 56//8 57//8 58//8
f 58//8 57//8 52//8
f 58//8 52//8 23//8
f 23//8 52//8 22//8
f 20//25 51//25 18//25
f 18//25 51//25 59//25
f 60//25 61//25 62//25
f 61//25 60//25 63//25
f 63//25 60//25 64//25
f 63//25 64//25 65//25
f 65//25 64//25 66//25
f 66//25 64//25 67//25
f 66//25 67//25 68//25
f 69//25 70//25 62//25
f 62//25 70//25 71//25
f 62//25 71//25 60//25
f 60//25 71//25 72//25
f 60//25 72//25 73//25
f 73//25 72//25 74//25
f 73//25 74//25 75//25
f 76//25 77//25 59//25
f 59//25 77//25 78//25
f 59//25 78//25 18//25
f 18//25 78//25 79//25
f 18//25 79//25 24//25
f 24//25 79//25 68//25
f 24//25 68//25 80//25
f 80//25 68//25 67//25
f 81//2 82//2 83//2
f 83//2 84//2 85//2
f 86//26 87//26 88//26
f 88//2 87//2 89//2
f 88//2 89//2 90//2
f 83//2 82//2 91//2
f 91//2 82//2 92//2
f 91//2 92//2 93//2
f 94//2 95//2 96//2
f 96//2 95//2 81//2
f 96//2 81//2 89//2
f 89//2 81//2 83//2
f 89//2 83//2 90//2
f 90//2 83//2 85//2
f 26//1 33//1 25//1
f 25//1 33//1 43//1
f 25//1 43//1 27//1
f 27//1 43//1 32//1
f 27//1 32//1 31//1
f 30//1 41//1 29//1
f 29//1 41//1 35//1
f 29//1 35//1 31//1
f 31//1 35//1 28//1
f 31//1 28//1 27//1
f 40//3 39//3 97//3
f 97//3 39//3 98//3
f 99//3 100//3 101//3
f 101//3 100//3 97//3
f 101//3 97//3 102//3
f 102//3 97//3 98//3
f 102//3 98//3 103//3
f 103//3 98//3 104//3
f 48//2 47//2 105//2
f 105//2 47//2 106//2
f 107//2 108//2 109//2
f 109//2 108//2 105//2
f 109//2 105//2 110//2
f 110//2 105//2 106//2
f 110//2 106//2 111//2
f 111//2 106//2 112//2
f 101//27 113//27 114//27
f 101//27 114//27 99//27
f 99//28 114//28 115//28
f 99//28 115//28 100//28
f 100//29 115//29 116//29
f 100//29 116//29 97//29
f 113//1 101//1 117//1
f 117//1 101//1 102//1
f 98//30 118//30 119//30
f 98//30 119//30 104//30
f 104//31 119//31 120//31
f 104//31 120//31 103//31
f 103//32 120//32 117//32
f 103//32 117//32 102//32
f 121//1 122//1 123//1
f 123//1 122//1 124//1
f 123//1 124//1 125//1
f 123//33 126//33 121//33
f 121//33 126//33 127//33
f 53//34 128//34 129//34
f 53//34 129//34 54//34
f 54//35 129//35 130//35
f 54//35 130//35 55//35
f 55//36 130//36 131//36
f 55//36 131//36 50//36
f 128//25 53//25 132//25
f 132//25 53//25 52//25
f 58//37 133//37 134//37
f 58//37 134//37 56//37
f 56//38 134//38 135//38
f 56//38 135//38 57//38
f 57//39 135//39 132//39
f 57//39 132//39 52//39
f 136//6 137//6 138//6
f 138//6 137//6 139//6
f 138//6 139//6 140//6
f 80//3 141//3 24//3
f 24//3 141//3 137//3
f 24//3 137//3 49//3
f 49//3 137//3 136//3
f 49//3 136//3 23//3
f 23//3 136//3 133//3
f 23//3 133//3 58//3
f 60//40 142//40 143//40
f 60//40 143//40 64//40
f 64//41 143//41 144//41
f 64//41 144//41 67//41
f 67//42 144//42 141//42
f 67//42 141//42 80//42
f 142//7 60//7 145//7
f 145//7 60//7 73//7
f 72//42 146//42 147//42
f 72//42 147//42 74//42
f 74//41 147//41 148//41
f 74//41 148//41 75//41
f 75//40 148//40 145//40
f 75//40 145//40 73//40
f 146//3 72//3 149//3
f 149//3 72//3 71//3
f 62//43 150//43 151//43
f 62//43 151//43 69//43
f 69//33 151//33 152//33
f 69//33 152//33 70//33
f 70//44 152//44 149//44
f 70//44 149//44 71//44
f 150//8 62//8 153//8
f 153//8 62//8 61//8
f 65//45 154//45 155//45
f 65//45 155//45 63//45
f 63//46 155//46 153//46
f 63//46 153//46 61//46
f 154//47 65//47 156//47
f 156//47 65//47 66//47
f 79//46 157//46 158//46
f 79//46 158//46 68//46
f 68//45 158//45 156//45
f 68//45 156//45 66//45
f 157//8 79//8 159//8
f 159//8 79//8 78//8
f 59//48 160//48 161//48
f 59//48 161//48 76//48
f 76//47 161//47 162//47
f 76//47 162//47 77//47
f 77//49 162//49 159//49
f 77//49 159//49 78//49
f 59//2 51//2 160//2
f 160//2 51//2 163//2
f 50//2 131//2 51//2
f 51//2 131//2 164//2
f 51//2 164//2 163//2
f 165//6 163//6 166//6
f 166//6 163//6 164//6
f 122//47 138//47 167//47
f 167//47 138//47 140//47
f 167//47 140//47 168//47
f 140//35 139//35 168//35
f 168//35 139//35 169//35
f 168//35 169//35 170//35
f 170//35 169//35 171//35
f 109//32 172//32 173//32
f 109//32 173//32 107//32
f 107//31 173//31 174//31
f 107//31 174//31 108//31
f 108//30 174//30 175//30
f 108//30 175//30 105//30
f 172//1 109//1 176//1
f 176//1 109//1 110//1
f 106//29 177//29 178//29
f 106//29 178//29 112//29
f 112//28 178//28 179//28
f 112//28 179//28 111//28
f 111//27 179//27 176//27
f 111//27 176//27 110//27
f 177//7 106//7 180//7
f 180//7 106//7 47//7
f 47//7 45//7 180//7
f 180//7 45//7 44//7
f 180//7 44//7 124//7
f 124//7 44//7 43//7
f 124//7 43//7 125//7
f 125//7 43//7 33//7
f 125//7 33//7 34//7
f 97//7 116//7 40//7
f 40//7 116//7 125//7
f 40//7 125//7 38//7
f 38//7 125//7 34//7
f 124//50 122//50 180//50
f 180//50 122//50 167//50
f 181//7 88//7 182//7
f 182//7 88//7 90//7
f 83//51 183//51 184//51
f 83//51 184//51 84//51
f 84//52 184//52 185//52
f 84//52 185//52 85//52
f 85//53 185//53 182//53
f 85//53 182//53 90//53
f 183//25 83//25 186//25
f 186//25 83//25 91//25
f 82//4 187//4 188//4
f 82//4 188//4 92//4
f 92//6 188//6 189//6
f 92//6 189//6 93//6
f 93//5 189//5 186//5
f 93//5 186//5 91//5
f 187//8 82//8 190//8
f 190//8 82//8 81//8
f 96//32 191//32 192//32
f 96//32 192//32 94//32
f 94//31 192//31 193//31
f 94//31 193//31 95//31
f 95//30 193//30 190//30
f 95//30 190//30 81//30
f 191//1 96//1 194//1
f 194//1 96//1 89//1
f 88//29 181//29 195//29
f 88//29 195//29 86//29
f 86//28 195//28 196//28
f 86//28 196//28 87//28
f 87//27 196//27 194//27
f 87//27 194//27 89//27
f 37//8 36//8 197//8
f 197//8 36//8 35//8
f 197//8 35//8 198//8
f 198//8 35//8 41//8
f 198//8 41//8 199//8
f 199//8 41//8 42//8
f 105//8 175//8 48//8
f 48//8 175//8 199//8
f 48//8 199//8 46//8
f 46//8 199//8 42//8
f 118//8 98//8 197//8
f 197//8 98//8 39//8
f 197//8 39//8 37//8
f 197//3 200//3 118//3
f 118//3 200//3 201//3
f 118//3 201//3 119//3
f 119//3 201//3 120//3
f 115//3 126//3 116//3
f 116//3 126//3 123//3
f 116//3 123//3 125//3
f 115//3 114//3 126//3
f 126//3 114//3 113//3
f 126//3 113//3 201//3
f 201//3 113//3 117//3
f 201//3 117//3 120//3
f 130//8 121//8 131//8
f 131//8 121//8 127//8
f 131//8 127//8 164//8
f 164//8 127//8 166//8
f 122//8 135//8 134//8
f 122//8 134//8 138//8
f 138//8 134//8 133//8
f 138//8 133//8 136//8
f 130//8 129//8 121//8
f 121//8 129//8 128//8
f 121//8 128//8 122//8
f 122//8 128//8 132//8
f 122//8 132//8 135//8
f 152//25 151//25 169//25
f 139//25 137//25 141//25
f 157//25 159//25 202//25
f 144//25 143//25 141//25
f 141//25 143//25 142//25
f 141//25 142//25 139//25
f 139//25 142//25 145//25
f 139//25 145//25 148//25
f 159//25 162//25 202//25
f 202//25 162//25 161//25
f 202//25 161//25 165//25
f 165//25 161//25 160//25
f 165//25 160//25 163//25
f 155//25 202//25 153//25
f 153//25 202//25 169//25
f 153//25 169//25 150//25
f 150//25 169//25 151//25
f 148//25 147//25 139//25
f 139//25 147//25 146//25
f 139//25 146//25 169//25
f 169//25 146//25 149//25
f 169//25 149//25 152//25
f 158//25 157//25 156//25
f 156//25 157//25 202//25
f 156//25 202//25 154//25
f 154//25 202//25 155//25
f 193//2 170//2 190//2
f 190//2 170//2 174//2
f 180//2 167//2 177//2
f 177//2 167//2 168//2
f 177//2 168//2 178//2
f 178//2 168//2 179//2
f 174//2 170//2 175//2
f 175//2 170//2 203//2
f 175//2 203//2 199//2
f 176//2 179//2 185//2
f 185//2 184//2 176//2
f 176//2 184//2 183//2
f 176//2 183//2 172//2
f 196//2 195//2 168//2
f 168//2 195//2 181//2
f 168//2 181//2 179//2
f 179//2 181//2 182//2
f 179//2 182//2 185//2
f 183//2 186//2 172//2
f 172//2 186//2 189//2
f 172//2 189//2 173//2
f 173//2 189//2 188//2
f 173//2 188//2 174//2
f 174//2 188//2 187//2
f 174//2 187//2 190//2
f 193//2 192//2 170//2
f 170//2 192//2 191//2
f 170//2 191//2 168//2
f 168//2 191//2 194//2
f 168//2 194//2 196//2
f 199//50 203//50 198//50
f 198//50 203//50 204//50
f 200//54 197//54 205//54
f 205//1 197//1 198//1
f 205//1 198//1 204//1
f 205//41 206//41 200//41
f 200//41 206//41 201//41
f 126//38 201//38 206//38
f 126//38 206//38 127//38
f 127//38 206//38 207//38
f 127//38 207//38 166//38
f 166//38 207//38 202//38
f 166//38 202//38 165//38
f 171//52 169//52 208//52
f 208//52 169//52 202//52
f 208//52 202//52 207//52
f 170//55 171//55 203//55
f 203//55 171//55 208//55
f 203//55 208//55 204//55
f 206//7 205//7 207//7
f 207//7 205//7 204//7
f 207//7 204//7 208//7
